inDegrees=no
num_controls=7
num_derivatives=13
num_iterations=229
num_multipliers=7
num_parameters=0
num_slacks=7
num_states=26
objective=5.399691
objective_accelerations=0.364138
objective_balance=0.041152
objective_effort=0.373902
objective_height=4.547708
objective_ligament=0.072791
solver_duration=2232.306421
status=Solve_Succeeded
success=true
DataType=double
version=3
OpenSimVersion=4.4-2022-07-23-0e9fedc
endheader
time	/jointset/ground_pelvis/pelvis_tilt/value	/jointset/ground_pelvis/pelvis_tx/value	/jointset/ground_pelvis/pelvis_ty/value	/jointset/hip_l/hip_flexion_l/value	/jointset/hip_l/hip_adduction_l/value	/jointset/hip_l/hip_rotation_l/value	/jointset/back/lumbar_extension/value	/jointset/patellofemoral_l/patellar_flexion_l/value	/jointset/knee_l/knee_flexion_l/value	/jointset/knee_l/knee_adduction_l/value	/jointset/knee_l/knee_rotation_l/value	/jointset/ankle_l/ankle_angle_l/value	/jointset/subtalar_l/subtalar_angle_l/value	/jointset/ground_pelvis/pelvis_tilt/speed	/jointset/ground_pelvis/pelvis_tx/speed	/jointset/ground_pelvis/pelvis_ty/speed	/jointset/hip_l/hip_flexion_l/speed	/jointset/hip_l/hip_adduction_l/speed	/jointset/hip_l/hip_rotation_l/speed	/jointset/back/lumbar_extension/speed	/jointset/patellofemoral_l/patellar_flexion_l/speed	/jointset/knee_l/knee_flexion_l/speed	/jointset/knee_l/knee_adduction_l/speed	/jointset/knee_l/knee_rotation_l/speed	/jointset/ankle_l/ankle_angle_l/speed	/jointset/subtalar_l/subtalar_angle_l/speed	/forceset/tau_hip_flexion_l	/forceset/tau_hip_adduction_l	/forceset/tau_hip_rotation_l	/forceset/tau_knee_flexion_l	/forceset/tau_ankle_angle_l	/forceset/tau_subtalar_angle_l	/forceset/tau_lumbar_extension	lambda_cid13_p0	lambda_cid13_p1	lambda_cid13_p2	lambda_cid13_p3	lambda_cid13_p4	lambda_cid13_p5	lambda_cid14_p0	/jointset/ground_pelvis/pelvis_tilt/accel	/jointset/ground_pelvis/pelvis_tx/accel	/jointset/ground_pelvis/pelvis_ty/accel	/jointset/hip_l/hip_flexion_l/accel	/jointset/hip_l/hip_adduction_l/accel	/jointset/hip_l/hip_rotation_l/accel	/jointset/back/lumbar_extension/accel	/jointset/patellofemoral_l/patellar_flexion_l/accel	/jointset/knee_l/knee_flexion_l/accel	/jointset/knee_l/knee_adduction_l/accel	/jointset/knee_l/knee_rotation_l/accel	/jointset/ankle_l/ankle_angle_l/accel	/jointset/subtalar_l/subtalar_angle_l/accel	gamma_cid13_p0	gamma_cid13_p1	gamma_cid13_p2	gamma_cid13_p3	gamma_cid13_p4	gamma_cid13_p5	gamma_cid14_p0
0.5	-0.02107483095297957	-0.005014196933793621	0.8456076070952486	0.7154882784200811	-0.3296186946427749	-0.1149769417224657	-0.7660488156674804	0.8060534836972849	0.8060534836972856	-0.1174682939362513	-0.1745329025977031	0.1690639536051991	0.02137616039265141	0.06480719812536426	-0.09891798894227705	-0.2727713285965137	1.026289167262895	-0.05083059824203267	0.4739254539817738	-0.848661599747053	1.48119206943095	1.48119206943094	0.1188396805689282	6.621974646217593e-06	0.4927527812100732	0.1174297576980882	-0.2129792977859297	0.02481652799509716	-0.003480012764930109	-0.236301964954842	0.04558914761486556	0.04689298675554061	0.2905522616501945	-29.24210182223027	-17.93686863851047	5.479460130800214	-3.697384200475081	-701.2154196597129	-81.50268250183521	-14.25423267660839	0.1070137187805684	0.4354068690115064	-0.1393431936053255	-1.137049496383695	0.2206653756546146	-0.4101720700898542	1.486582061946336	-1.146747558318049	-1.14674755831805	-0.2412447006253651	0.01444364307348838	-0.1746971439474462	0.2510103570700413	-4.377974702552004e-08	-5.25263208324811e-07	8.1583945097303e-08	-6.867775540469028e-08	-5.320931985859105e-08	-2.391157907988653e-07	-6.168964780153299e-08
0.51	-0.02042160985434578	-0.005981568051006209	0.8428735250089043	0.7256928390417158	-0.3301162597459119	-0.110259406126682	-0.7744599552795721	0.8208057922950373	0.8208057922950368	-0.1162921655941586	-0.1745328948770517	0.1739818307451055	0.02256240431897788	0.06583063683421603	-0.09455204899818447	-0.2739817579864195	1.014465909129385	-0.04868907689316171	0.4695275464129115	-0.833465480798635	1.469047384812596	1.469047384812589	0.1163701593593103	-3.302857069615486e-06	0.4907465012936151	0.1197894328248782	-0.2173308307543597	0.02553107648174732	-0.003608042072086781	-0.2393164935492063	0.04338332322381726	0.04717221570470092	0.2954748593834501	-30.11245705808213	-17.89200551226612	5.456613984053651	-3.402996737713353	-704.3938343440384	-81.48551556893979	-13.70396080910774	0.09904998729664213	0.4378003167810519	-0.102401353726383	-1.228521535031547	0.209945495436939	-0.4627695827133488	1.551253092186352	-1.281657784092533	-1.281657784092206	-0.2522605123429341	-0.008442556540581937	-0.2250334390279542	0.2240870018424789	-3.368777739902544e-08	-4.950538762902892e-07	3.664934194629686e-08	-7.131426141932843e-08	-3.930872418299437e-08	-2.141074398870692e-07	-5.331109598895569e-08
0.52	-0.01975834616055172	-0.006905157216843287	0.8401292369202524	0.7357744555693759	-0.3305925996393735	-0.1055874835030728	-0.7827161084460003	0.8354299882725066	0.8354299882725049	-0.1151412234004048	-0.1745329251994329	0.1788773570811407	0.02377137317884404	0.06681571715743441	-0.09016159866717478	-0.2748125290580529	1.001700348468001	-0.04658555630694643	0.464802859546892	-0.8176643106143437	1.455569545374301	1.455569545374296	0.1138024509011754	-2.50809864384137e-06	0.4882826204358385	0.1219747444060284	-0.2216823637227903	0.02624562496839702	-0.003736071379244034	-0.2423310221435709	0.04117749883276879	0.04745144465386063	0.3003974571167054	-30.98546846675769	-17.84722202415363	5.434402888727294	-3.133356195720582	-707.6357152811851	-81.48710439217074	-13.15073265125453	0.09934204165389278	0.4403089463949217	-0.06341152995084584	-1.32551000195825	0.2130652231234809	-0.4755279295212946	1.607592309121013	-1.413378522306402	-1.413378522306396	-0.2608821503287502	0.01658756110181979	-0.2662173322111471	0.2161376479420759	-3.34573463911172e-08	-4.387873979479248e-07	6.026982760218958e-08	-6.320453881699134e-08	-3.644796402318749e-08	-1.985325494573465e-07	-5.065095579815837e-08
0.53	-0.01908546529044572	-0.007784750562314131	0.8373785595066927	0.7457238219259017	-0.3310480686067137	-0.1009643953302884	-0.790811311532722	0.8499128299104034	0.849912829910404	-0.1140163483837193	-0.1745328417870583	0.183746003537925	0.0250013574754815	0.06775144021277667	-0.08575585316798243	-0.2752569516979523	0.9880219991384139	-0.04451388717505647	0.4597424703726766	-0.8012859757953211	1.440781753122528	1.440781753122534	0.111175595453844	1.147373913517288e-05	0.48537308813429	0.1239938868334447	-0.2258075844427887	0.0268485608475919	-0.003890986146758897	-0.2455107583819456	0.03911230280665062	0.04769153798055307	0.3051301640481665	-31.81534830424049	-17.79021815171665	5.407072656144439	-2.849011817453821	-710.8584705882547	-81.49768998943472	-12.59544561955254	0.08933266013897173	0.4408781515562767	-0.02506432668937843	-1.411637599469453	0.2033982514905874	-0.5321873743789969	1.666503708491462	-1.544024088248712	-1.544024088247059	-0.2631915828420334	-0.007571668115753456	-0.3143726123354877	0.1906247711861264	-4.603643871866349e-08	-3.352962097003615e-07	1.858577878526496e-07	-3.80970155835473e-08	-4.798860462647915e-08	-1.860086911337673e-07	-5.584452554012461e-08
0.54	-0.01840349814525344	-0.008620252292818074	0.834625416527598	0.7555318767489294	-0.3314829847840812	-0.09639408964184756	-0.7987400213432136	0.8642412847234554	0.8642412847234581	-0.1129176627896886	-0.1745328859816273	0.1885833443850521	0.02625069764260208	0.06863297217470211	-0.0813432756737945	-0.2753056421650474	0.9734380417684079	-0.04247499831241325	0.4542463626781678	-0.7843656553683552	1.424692180405315	1.424692180405332	0.1085645663702443	-2.955095235373234e-05	0.4820214985043902	0.1258459185026496	-0.2299328051627872	0.02745149672678708	-0.004045900914276164	-0.2486904946203201	0.03704710678053256	0.04793163130724594	0.3098628709796274	-32.64881884781357	-17.73318317819468	5.380420379044636	-2.586896351213095	-714.1565038135761	-81.52857563138548	-12.03914181318551	0.08850382297052964	0.4416753453940388	0.01573490461003466	-1.506631610041977	0.2065091692741305	-0.5626716335799781	1.715989430709703	-1.673734615394533	-1.673734615394531	-0.2577168775824395	0.005586255248227661	-0.3546287978813888	0.1827154962997932	-7.27877696301171e-08	-1.795564062385351e-07	4.242608263779513e-07	5.816584943887609e-09	-7.546270990383751e-08	-1.768604427999639e-07	-6.972730627153151e-08
0.55	-0.0177129525459048	-0.009411642317413416	0.8318737708535029	0.7651896181285047	-0.3318978013983753	-0.09187975855831133	-0.8064969579874927	0.8784024122710571	0.8784024122710591	-0.1118459505173299	-0.1745329251994329	0.1933849515457239	0.02751753474438959	0.0694692832045383	-0.07693854623404066	-0.274956723100002	0.9579675332281623	-0.04049475403320196	0.4485505493946802	-0.7669439279626253	1.407327755644705	1.40732775564471	0.1057828772357115	1.048002255299272e-05	0.4782283902422192	0.1274916739522106	-0.2339425210689418	0.02816039567193436	-0.004199962517776882	-0.2517480498853286	0.03478729870226428	0.04803874239036616	0.3144408637255951	-33.54546169078262	-17.59989086701828	5.33310937491571	-2.205793903635124	-717.3396871129108	-81.41888419857123	-11.48293674872721	0.08015592734726208	0.4393051488413429	0.05446775083127941	-1.588676854220979	0.1927394231867631	-0.5835058487524529	1.766926224227075	-1.798616966997235	-1.798616966999108	-0.2876443020722825	0.001874101581602072	-0.4023843369871242	0.1509813500434141	-8.537627416650913e-08	-6.455521874724377e-08	5.598627982707042e-07	3.385441976930073e-08	-8.828402680091335e-08	-1.569715708423302e-07	-7.51293032109864e-08
0.5600000000000001	-0.01701425159938629	-0.01015909836649617	0.8291276138387341	0.7746883711470365	-0.3322930240966889	-0.08742447954221358	-0.8140773449919699	0.8923837314589322	0.8923837314589331	-0.1108019050104539	-0.174532847720583	0.1981464811244536	0.02879992455682454	0.07026404160865814	-0.07255648057127578	-0.2742079102997769	0.9416403695597114	-0.03855621511630552	0.4424359491904206	-0.7490557274079973	1.388730508459974	1.388730508459966	0.1030312132738354	-2.985683752065413e-06	0.4740059821159613	0.1289564606321383	-0.2379522369750961	0.02886929461708249	-0.004354024121283721	-0.2548056051503367	0.03252749062399633	0.04814585347348758	0.3190188564715627	-34.44614669077954	-17.46594178449184	5.285752612969599	-1.848941074044744	-720.6040059716194	-81.34027591251508	-10.92800129048317	0.08019329782726095	0.437142589996249	0.09571365164594269	-1.677962635683042	0.1981680968111642	-0.6464290177343773	1.809284060489341	-1.920299100218849	-1.920299100218847	-0.2517118430511195	-0.005113080994129277	-0.4404887706987704	0.1465217423731415	-8.096938705282783e-08	1.559629579406839e-09	5.721034902044023e-07	4.284133575228832e-08	-8.352199764165075e-08	-1.241939505361004e-07	-7.035435960009923e-08
0.5700000000000001	-0.01630782651223879	-0.01086286691922938	0.826390942235639	0.7840196926429246	-0.332669050847286	-0.08303202887429671	-0.8214766284467956	0.9061730667263709	0.9061730667263721	-0.1097854038801541	-0.1745328681809927	0.2028637261232117	0.03009608975760688	0.07101396873580676	-0.06820282752618445	-0.2730593801410177	0.9244879255169965	-0.03665814314439828	0.4360012837250122	-0.7307357978076596	1.368942464113878	1.368942464113877	0.1002636882837331	-2.275171417143187e-06	0.4693772415372023	0.130244221321464	-0.241675126885238	0.02937803538415149	-0.004482850068566714	-0.2580086136626442	0.03045690304392398	0.04823189578619244	0.3233335047278039	-35.2790685871401	-17.33251692667458	5.235976734642717	-1.503284797645368	-723.7199710358263	-81.29958263197157	-10.37579595901463	0.07133229286033693	0.433646614110453	0.1344610590593778	-1.75429728000606	0.1841810582701112	-0.6499839222549436	1.853122272228906	-2.037155708208531	-2.037155708207614	-0.2900502342143135	0.00259912770540756	-0.4839285918890688	0.1149752336662904	-7.406642015408146e-08	5.356930411291781e-08	5.616642978699067e-07	4.78211427343741e-08	-7.611956895277748e-08	-9.221290681938654e-08	-6.421714698053128e-08
0.58	-0.01559411417927935	-0.01152326495104271	0.8236677636063452	0.7931754073000974	-0.3330263860159862	-0.07870552458329624	-0.8286907576331334	0.9197587018290678	0.9197587018290695	-0.1087967334811997	-0.1745328943342037	0.2075327113380972	0.03140414696557327	0.07172149077102212	-0.06388237638729845	-0.2715093155395185	0.9065190018166678	-0.03481789873690658	0.4292466738071691	-0.7120248737104061	1.347990475511639	1.347990475511644	0.09746506700464951	-4.12424475803294e-06	0.4643540253414594	0.13133486206895	-0.2453980167953804	0.02988677615121979	-0.004611676015846916	-0.2612116221749519	0.02838631546385145	0.04831793809889635	0.3276481529840449	-36.11672702397738	-17.19833000996908	5.186156863693898	-1.179517126652759	-726.9252042479553	-81.28975222308746	-9.827728531290349	0.07171227944060875	0.4305022087551791	0.176020540193931	-1.841258567205823	0.1866025839280573	-0.7104179082212999	1.88748295987247	-2.153087951447588	-2.153087951447559	-0.2579311008473816	-0.005624998129293998	-0.5193838940955788	0.1070977540052093	-6.391274469804125e-08	8.720944998559598e-08	5.216885120698575e-07	4.758238915714607e-08	-6.527848041138821e-08	-6.126926517274034e-08	-5.630581658221642e-08
